<svg width="94" height="82" viewBox="0 0 94 82" fill="none" xmlns="http://www.w3.org/2000/svg">
<path fill-rule="evenodd" clip-rule="evenodd" d="M76.3144 6.05101C76.8385 6.22514 77.1222 6.79119 76.948 7.3153C76.5563 8.49436 76.1651 9.83209 75.9233 11.0178C75.7053 12.0872 75.4297 13.1395 75.1621 14.1613L75.1255 14.3009C74.8441 15.3761 74.574 16.4198 74.3697 17.4738C73.6417 21.2299 73.4991 25.1646 73.4991 29.058C73.4991 34.711 72.8179 40.5479 71.6727 46.0795C71.041 49.1309 70.7032 52.1902 70.4267 55.2926C70.3515 56.1374 70.2806 56.9877 70.2094 57.8421C70.0205 60.1081 69.8293 62.4027 69.5471 64.6986C69.4711 65.3176 69.2905 66.5758 68.5601 67.5528C67.8774 68.466 66.8752 69.0157 65.7944 69.3677C64.7139 69.7196 63.4659 69.9025 62.1851 70.0213C61.2648 70.1066 60.2854 70.1618 59.3096 70.2168C58.9302 70.2382 58.5515 70.2595 58.1769 70.2826C56.8195 70.3662 55.4903 70.4736 54.2519 70.6838C44.6601 72.3124 37.3478 72.2878 26.6507 71.3803C18.8728 70.7205 13.0094 70.0173 6.74019 68.0799C6.29997 68.1248 5.83461 68.0572 5.43569 67.7544C4.97271 67.4031 4.81605 66.8951 4.755 66.5405C4.69227 66.1763 4.70014 65.7918 4.71339 65.4907C4.71905 65.3621 4.72538 65.2506 4.73112 65.1495C4.74095 64.9763 4.74905 64.8336 4.74905 64.6881V59.9226C4.74905 56.8958 4.6868 53.8704 4.62427 50.834L4.6241 50.8258C4.56169 47.7956 4.49905 44.7544 4.49905 41.7104C4.49905 36.2231 3.63857 30.8022 2.76145 25.2836L2.75838 25.2643C1.8864 19.778 0.999055 14.1951 0.999055 8.50491C0.999055 7.95262 1.44677 7.50491 1.99906 7.50491C2.55134 7.50491 2.99905 7.95262 2.99905 8.50491C2.99905 14.0178 3.85963 19.4516 4.73666 24.9697L4.74561 25.026C5.61562 30.4998 6.49905 36.0581 6.49905 41.7104C6.49905 44.7331 6.56131 47.7564 6.62384 50.7928L6.62388 50.7948C6.68633 53.8271 6.74905 56.8724 6.74905 59.9226V64.6881C6.74905 64.8885 6.7356 65.1301 6.72398 65.3388C6.71911 65.4264 6.71456 65.5081 6.71146 65.5786C6.70269 65.7778 6.70177 65.935 6.70994 66.0583L6.87004 66.0252L7.11738 66.1027C13.249 68.0231 18.9748 68.722 26.8198 69.3875C37.4144 70.2863 44.5461 70.3031 53.9171 68.7121C55.2656 68.4831 56.6828 68.3708 58.054 68.2864C58.4534 68.2618 58.8469 68.2396 59.2343 68.2178C60.1954 68.1636 61.1185 68.1116 62.0005 68.0298C63.2353 67.9154 64.3077 67.7485 65.175 67.466C66.0421 67.1836 66.6152 66.8141 66.9582 66.3553C67.3396 65.8452 67.4856 65.0774 67.5621 64.4547C67.8391 62.2004 68.0254 59.9649 68.2132 57.7124C68.285 56.8498 68.3571 55.9847 68.4346 55.1151C68.7129 51.9919 69.0587 48.8408 69.7143 45.6741C70.8358 40.2563 71.4991 34.5562 71.4991 29.058C71.4991 25.1315 71.6409 21.0422 72.4062 17.0933C72.6245 15.9669 72.9107 14.8639 73.1907 13.7945L73.2229 13.6715C73.4941 12.636 73.757 11.6321 73.9637 10.6182C74.2275 9.32421 74.6452 7.90322 75.0501 6.6847C75.2242 6.16059 75.7902 5.87687 76.3144 6.05101ZM6.49348 66.093C6.49348 66.093 6.49493 66.093 6.49758 66.0933L6.49348 66.093Z" fill="#0F0C1C"/>
<path fill-rule="evenodd" clip-rule="evenodd" d="M24.7123 2C22.6387 2 19.5607 2.36723 17.747 3.05929C16.2202 3.64188 14.5848 3.76978 13.1073 3.88532L13.0962 3.88619C11.564 4.00601 10.1877 4.11435 8.92108 4.56674C8.11174 4.85579 7.20554 4.9817 6.41962 5.0909C6.34619 5.1011 6.27381 5.11116 6.20266 5.12119C5.3127 5.24664 4.58091 5.37067 3.98696 5.63583C3.79753 5.7204 3.58381 5.80254 3.39614 5.87468C3.33959 5.89641 3.28541 5.91724 3.23497 5.93694C2.99559 6.03048 2.79384 6.11575 2.61964 6.21097C2.27911 6.39712 2.15404 6.55898 2.10576 6.74778C2.08807 6.81693 2.07351 6.87204 2.06121 6.91858C2.03801 7.00636 2.02287 7.06365 2.01003 7.12718C2.00539 7.15017 2.0027 7.1669 2.00115 7.17848C2.02248 7.215 2.07917 7.29566 2.21604 7.43145C2.34817 7.56253 2.55947 7.66724 3.11611 7.80006C3.23267 7.82787 3.36412 7.8568 3.50805 7.88848C3.98888 7.99431 4.6091 8.13083 5.27957 8.35878C5.41148 8.40363 5.54054 8.44781 5.66699 8.49109C7.00176 8.94799 8.04634 9.30556 9.09276 9.30556C14.4843 9.30556 19.7796 9.47944 25.0588 9.65279L25.0748 9.65332C30.3643 9.82701 35.6379 10 41.0078 10C44.9637 10 49.046 9.87263 52.9047 9.31581C55.5426 8.93514 58.2197 8.79866 60.861 8.69906C61.3327 8.68128 61.8029 8.66467 62.2715 8.64812C64.4421 8.57145 66.5804 8.49592 68.6952 8.30942C69.1801 8.26666 69.6621 8.24506 70.0989 8.22547C70.2705 8.21778 70.4351 8.21041 70.5901 8.20218C71.1661 8.17163 71.642 8.12874 72.0591 8.03238C72.465 7.93859 72.7907 7.79913 73.0691 7.5884C73.3462 7.37858 73.6236 7.06238 73.8819 6.54994C74.129 6.0595 73.9727 5.59158 73.5817 5.36993C69.9767 3.32623 65.514 2.71517 61.1011 2.48475C54.6381 2.14728 48.1806 2 41.6798 2H24.7123ZM1.98972 7.15499C1.98972 7.15499 1.99154 7.15814 1.99329 7.16398C1.99028 7.15783 1.98972 7.15499 1.98972 7.15499ZM17.034 1.19071C19.1679 0.376441 22.519 0 24.7123 0H41.6798C48.2108 0 54.7034 0.147966 61.2054 0.487472C65.6714 0.720663 70.5343 1.34329 74.5681 3.63007C75.9975 4.44044 76.3357 6.12503 75.6679 7.45006C75.2943 8.19132 74.8331 8.76139 74.2763 9.18296C73.7207 9.60361 73.117 9.84064 72.5093 9.98104C71.9128 10.1189 71.2909 10.1678 70.6961 10.1994C70.5083 10.2093 70.3247 10.2175 70.1426 10.2257C69.7227 10.2445 69.3105 10.2629 68.8709 10.3017C66.6985 10.4933 64.4967 10.5709 62.3242 10.6476C61.8601 10.6639 61.3972 10.6803 60.9363 10.6976C58.3027 10.797 55.716 10.9308 53.1903 11.2953C49.1898 11.8726 44.9953 12 41.0078 12C35.5998 12 30.2937 11.8258 25.0091 11.6522C19.7196 11.4785 14.4514 11.3056 9.09276 11.3056C7.69167 11.3056 6.32028 10.8326 5.05594 10.3966C4.91451 10.3478 4.77442 10.2995 4.63577 10.2523C4.08103 10.0637 3.6137 9.96063 3.15077 9.85852C2.9852 9.82199 2.82019 9.78559 2.65194 9.74545C2.064 9.60517 1.36451 9.40392 0.807453 8.85126C0.391638 8.43874 0.0762942 7.98787 0.011221 7.41629C-0.0364222 6.9978 0.079069 6.57785 0.143804 6.34246C0.153197 6.30831 0.161521 6.27804 0.168123 6.25222C0.408726 5.31146 1.06955 4.779 1.66033 4.45605C1.95179 4.29673 2.25206 4.17375 2.50709 4.0741C2.58322 4.04436 2.65348 4.01733 2.71928 3.99202C2.89252 3.92538 3.03481 3.87065 3.17163 3.80957C4.06004 3.41294 5.06454 3.26185 5.92349 3.14077C5.98282 3.1324 6.04151 3.12418 6.09955 3.11604C6.93777 2.99849 7.64244 2.89968 8.24839 2.68326C9.77089 2.1395 11.3792 2.01405 12.8266 1.90115C12.8646 1.89819 12.9025 1.89523 12.9402 1.89227C14.4685 1.77276 15.8171 1.65505 17.034 1.19071Z" fill="#0F0C1C"/>
<path fill-rule="evenodd" clip-rule="evenodd" d="M25.2173 70C25.7696 70 26.2173 70.4477 26.2173 71C26.2173 70.9969 26.218 71.0014 26.2201 71.0148C26.2268 71.0584 26.2481 71.1963 26.3074 71.4724C26.375 71.7875 26.4717 72.1961 26.5875 72.6749C26.6329 72.8628 26.6811 73.0609 26.7313 73.2669C26.9341 74.1003 27.1684 75.0628 27.3782 76.0073C27.638 77.1774 27.8715 78.3695 27.9602 79.2914C28.0034 79.7401 28.0207 80.2017 27.9582 80.5863C27.9276 80.7746 27.8652 81.0308 27.7114 81.2682C27.5364 81.5383 27.2274 81.7974 26.7862 81.8391C25.6067 81.9505 24.4212 81.9425 23.277 81.9156C23.0167 81.9095 22.7595 81.9025 22.5047 81.8955C21.6229 81.8714 20.7712 81.8481 19.9237 81.8667C19.6507 81.8728 19.0756 81.9046 18.6344 81.9359C18.5577 81.9413 18.4886 81.9465 18.4284 81.9513C18.331 81.9829 18.2271 82 18.1192 82C18.0767 82 18.0313 81.9995 17.9894 81.9976C17.9698 81.9967 17.9369 81.995 17.8991 81.9907C17.8805 81.9886 17.8483 81.9845 17.8093 81.9768C17.7844 81.9718 17.6892 81.9529 17.5792 81.9018C17.5268 81.8775 17.4023 81.8152 17.2807 81.6896C17.1453 81.5497 16.9698 81.278 17.003 80.905C17.0329 80.5683 17.2172 80.358 17.3051 80.2732C17.3996 80.182 17.4906 80.1305 17.5331 80.1081C17.6214 80.0614 17.6971 80.0387 17.7205 80.0318C17.7543 80.0217 17.7826 80.0152 17.7997 80.0115C17.8582 79.9988 17.9146 79.9917 17.94 79.9886C18.0625 79.9735 18.2734 79.9565 18.4929 79.9409C18.9429 79.909 19.5569 79.8743 19.8796 79.8672C20.7815 79.8473 21.6992 79.8725 22.5892 79.8969C22.8366 79.9037 23.0818 79.9105 23.324 79.9162C24.2417 79.9377 25.1305 79.9451 25.9971 79.8938C25.9935 79.7798 25.9848 79.6434 25.9694 79.4829C25.8933 78.6922 25.6837 77.6027 25.4257 76.4409C25.2208 75.5182 24.9928 74.5812 24.7902 73.749C24.7394 73.5405 24.6903 73.3385 24.6435 73.1449C24.5278 72.6665 24.4255 72.2351 24.3519 71.8919C24.2881 71.5949 24.2173 71.2431 24.2173 71C24.2173 70.4477 24.665 70 25.2173 70Z" fill="#0F0C1C"/>
<path fill-rule="evenodd" clip-rule="evenodd" d="M49.4875 70.0522C50.011 69.8761 50.5781 70.1577 50.7541 70.6812C51.3756 72.5292 51.8994 74.4896 52.3143 76.3733C52.3673 76.6137 52.4485 76.8634 52.5479 77.1687C52.5918 77.3038 52.6394 77.4499 52.6895 77.6108C52.8331 78.0713 52.9991 78.6607 52.9991 79.233C52.9991 79.6233 52.9042 80.0595 52.5822 80.4121C52.2695 80.7544 51.8749 80.8709 51.5962 80.9166C51.3229 80.9615 51.0378 80.9568 50.8315 80.9521C50.7872 80.9511 50.7449 80.95 50.7043 80.9489C50.5276 80.9444 50.3823 80.9406 50.2333 80.9472C47.9201 81.0494 45.5514 80.981 43.2274 80.914C41.793 80.8726 40.3758 80.8317 38.9991 80.8317C38.4468 80.8317 37.9991 80.384 37.9991 79.8317C37.9991 79.2794 38.4468 78.8317 38.9991 78.8317C40.5069 78.8317 41.9716 78.8749 43.4194 78.9177C45.6694 78.9841 47.8785 79.0493 50.145 78.9491C50.3714 78.9391 50.6012 78.9453 50.7798 78.9501C50.8144 78.951 50.8472 78.9519 50.8776 78.9526C50.9118 78.9534 50.9435 78.954 50.9727 78.9543C50.9391 78.7534 50.8741 78.5073 50.7802 78.206C50.7493 78.1072 50.7139 77.9984 50.6766 77.8838C50.5652 77.5414 50.4367 77.1463 50.3612 76.8036C49.9588 74.977 49.4532 73.0872 48.8585 71.3188C48.6824 70.7953 48.964 70.2282 49.4875 70.0522Z" fill="#0F0C1C"/>
<path fill-rule="evenodd" clip-rule="evenodd" d="M83.1536 20.556C81.3524 20.1718 79.584 19.8574 77.9342 20.0666C76.1943 20.2874 75.1324 20.6122 74.0839 21.739C73.7076 22.1433 73.0749 22.166 72.6706 21.7898C72.2663 21.4136 72.2435 20.7808 72.6198 20.3765C74.1361 18.747 75.7548 18.3271 77.6825 18.0826C79.7076 17.8256 81.7811 18.2183 83.5708 18.6C85.0587 18.9173 86.5399 19.337 87.9033 20.4089C90.2247 22.234 91.7466 25.1882 92.6732 27.7155C94.334 32.2456 94.0641 37.0037 93.8088 41.504C93.7957 41.7352 93.7826 41.9657 93.7698 42.1954C93.7607 42.3607 93.7521 42.536 93.7432 42.7191C93.6973 43.6609 93.6412 44.8122 93.4337 45.9035C93.186 47.2064 92.6925 48.6143 91.575 49.5958C90.1886 50.8134 88.4413 51.7373 86.9005 52.552C86.5942 52.7139 86.2962 52.8715 86.0107 53.0262C85.7366 53.1748 85.4669 53.3323 85.1814 53.4991C85.1291 53.5296 85.0763 53.5604 85.0228 53.5916C84.6847 53.7887 84.3253 53.9952 83.9526 54.184C83.2056 54.5625 82.3577 54.8953 81.3839 54.9744C79.9075 55.0943 78.3996 54.7751 77.1188 54.3851C76.0528 54.0605 74.8491 53.5547 73.771 52.8581C72.7009 52.1667 71.6865 51.2432 71.102 50.0567C70.8579 49.5613 71.0617 48.9618 71.5571 48.7177C72.0526 48.4737 72.652 48.6774 72.8961 49.1729C73.2629 49.9174 73.9572 50.5973 74.8563 51.1782C75.7474 51.7539 76.7736 52.1894 77.7014 52.4719C78.8845 52.8321 80.1119 53.0711 81.2221 52.9809C81.8342 52.9313 82.4184 52.7193 83.0487 52.3999C83.3647 52.2398 83.6803 52.0591 84.0159 51.8636C84.0657 51.8345 84.1162 51.8051 84.1671 51.7753C84.4518 51.609 84.753 51.4331 85.0576 51.2679C85.3822 51.092 85.7072 50.9196 86.0302 50.7484C87.5694 49.9322 89.0628 49.1403 90.2552 48.0931C90.8775 47.5465 91.253 46.6656 91.4689 45.5299C91.6478 44.589 91.6966 43.604 91.7432 42.6614C91.7528 42.467 91.7624 42.2744 91.7729 42.0844C91.7834 41.8956 91.794 41.7071 91.8046 41.519C92.0637 36.9099 92.3098 32.5345 90.7954 28.4039C89.912 25.9945 88.5504 23.4618 86.6671 21.9812C85.6752 21.2013 84.5666 20.8574 83.1536 20.556Z" fill="#0F0C1C"/>
<path fill-rule="evenodd" clip-rule="evenodd" d="M79.9255 27.0434C78.7202 26.9962 77.641 26.9538 76.4834 27.1054C75.3576 27.2527 74.4622 28.0378 74.3702 28.8297C74.3064 29.3783 73.8099 29.7713 73.2613 29.7075C72.7128 29.6437 72.3198 29.1473 72.3836 28.5987C72.62 26.5652 74.567 25.3391 76.2238 25.1223C77.5666 24.9465 78.8644 24.9983 80.0962 25.0475C80.4215 25.0605 80.7421 25.0733 81.0578 25.0817C82.3998 25.1173 83.124 25.7458 83.7149 26.2587C83.8449 26.3715 83.9684 26.4787 84.0907 26.5728C84.5948 26.9609 84.8706 27.4592 85.0526 27.7884C85.0851 27.8471 85.1146 27.9005 85.1419 27.9468C85.3341 28.2732 85.5568 28.59 85.807 28.9424C85.8186 28.9586 85.8302 28.975 85.8418 28.9914C86.0752 29.3199 86.3327 29.6823 86.5646 30.0656C86.8921 30.6068 86.9911 31.1345 87.0462 31.5554C87.0635 31.6876 87.0764 31.8013 87.088 31.9034C87.117 32.1586 87.1376 32.3401 87.1979 32.5516C87.5299 33.7147 87.8476 35.1083 87.958 36.5236C88.0677 37.9301 87.9787 39.4298 87.4341 40.7619C86.6377 42.7099 85.6286 44.372 84.0655 45.9208C83.3304 46.6493 82.3047 46.8746 81.4755 46.9548C80.7979 47.0204 80.0844 46.9995 79.5402 46.9836C79.4078 46.9797 79.2856 46.9761 79.1762 46.9742C77.9416 46.9519 76.974 46.472 76.1503 46.0634C76.0479 46.0126 75.9477 45.963 75.8496 45.9154C75.5991 45.7941 75.3326 45.677 75.0407 45.5488L75.0289 45.5436C74.7388 45.4162 74.4254 45.2783 74.116 45.1279C73.5025 44.8296 72.8376 44.4509 72.2852 43.9089C71.8738 43.5052 71.6109 42.895 71.4532 42.4217C71.2858 41.9194 71.1692 41.3612 71.1528 40.9247C71.1489 40.8196 71.1503 40.7197 71.1513 40.6505C71.1514 40.6424 71.1515 40.6348 71.1516 40.6277C71.1524 40.5668 71.1523 40.5319 71.1514 40.5077C70.87 40.0589 70.9876 39.4635 71.4268 39.1571C71.8798 38.841 72.5031 38.952 72.8192 39.405C73.0492 39.7347 73.1239 40.0614 73.1447 40.3379C73.1539 40.4608 73.1525 40.5766 73.1515 40.6537L73.1512 40.6737C73.1502 40.7502 73.1495 40.7989 73.1515 40.85C73.1588 41.0452 73.2244 41.4108 73.3506 41.7894C73.4864 42.197 73.6284 42.4249 73.686 42.4814C74.0093 42.7987 74.4468 43.0649 74.9906 43.3292C75.2598 43.4602 75.5388 43.5831 75.8333 43.7125L75.8605 43.7244C76.1407 43.8475 76.437 43.9777 76.7215 44.1155C76.827 44.1666 76.928 44.216 77.0251 44.2635C77.8894 44.6864 78.4501 44.9608 79.2123 44.9745C79.3614 44.9772 79.5118 44.9814 79.6632 44.9857C80.1981 45.0008 80.7441 45.0163 81.2829 44.9641C81.9872 44.896 82.4275 44.7283 82.6578 44.5001C83.9959 43.1742 84.8683 41.7528 85.5829 40.0051C85.964 39.0727 86.0609 37.9214 85.964 36.6791C85.8678 35.4457 85.5865 34.1928 85.2747 33.1006C85.1643 32.7137 85.1189 32.3058 85.0864 32.014C85.0781 31.9394 85.0706 31.8724 85.0632 31.8153C85.0209 31.4928 84.9678 31.2899 84.8534 31.1009C84.6606 30.7821 84.4415 30.4736 84.1964 30.1286L84.1763 30.1003C83.931 29.7548 83.6601 29.372 83.4184 28.9615C83.3474 28.8408 83.2906 28.7415 83.2431 28.6583C83.0791 28.3712 83.0249 28.2763 82.8708 28.1577C82.5878 27.9399 82.3793 27.7638 82.2116 27.6221C81.7383 27.2222 81.5896 27.0965 81.0048 27.081C80.6313 27.071 80.2731 27.057 79.9255 27.0434Z" fill="#0F0C1C"/>
<path fill-rule="evenodd" clip-rule="evenodd" d="M24.8681 27.1211C25.0774 27.1845 25.4174 27.3205 25.6711 27.6363C26.165 28.2512 25.9828 28.9959 25.8767 29.315C25.7476 29.7033 25.5261 30.0804 25.3116 30.3208C24.8463 30.8422 24.2274 31.0781 23.6001 30.9774C23.0305 30.886 22.5791 30.5369 22.3121 30.1442C22.0604 29.7741 21.8333 29.1332 22.1596 28.497C22.3026 28.2183 22.5088 28.0217 22.7444 27.8868C22.7337 27.7708 22.7374 27.6567 22.7607 27.5513C22.9003 27.348 23.1627 27.1374 23.2441 27.0969C23.2848 27.0799 23.3506 27.0568 23.3752 27.0495C23.3914 27.045 23.419 27.0381 23.4305 27.0355C23.4673 27.0272 23.4974 27.0229 23.5027 27.0221C23.513 27.0206 23.5219 27.0194 23.5264 27.0189C23.5424 27.0169 23.5562 27.0155 23.5618 27.015C23.5772 27.0135 23.5946 27.0121 23.613 27.0108C23.6504 27.008 23.7009 27.0051 23.7608 27.0029C23.8789 26.9987 24.046 26.9974 24.2304 27.0105C24.4088 27.0231 24.6387 27.0516 24.8681 27.1211ZM23.6488 27.0114C23.6519 27.0114 23.657 27.0115 23.6635 27.0116L23.6488 27.0114Z" fill="#0F0C1C"/>
<path fill-rule="evenodd" clip-rule="evenodd" d="M45.7485 27.3913C45.7292 27.3663 45.7087 27.342 45.6867 27.3184C45.3103 26.9143 44.6775 26.8918 44.2734 27.2683C44.2664 27.2748 44.2411 27.2957 44.1526 27.3477C44.1415 27.3543 44.1262 27.363 44.1078 27.3735C44.0301 27.418 43.8969 27.4943 43.7882 27.5692C43.6337 27.6757 43.4354 27.8374 43.2753 28.0833C43.1083 28.3396 43.0188 28.6317 43.0021 28.9471C42.95 29.9299 43.6324 31 44.8595 31C45.4463 31 46.0025 30.8369 46.4189 30.4607C46.8434 30.0771 47.0369 29.5441 46.9929 29.0168C46.9302 28.2651 46.437 27.6776 45.7485 27.3913Z" fill="#0F0C1C"/>
<path fill-rule="evenodd" clip-rule="evenodd" d="M23.9991 43C24.5513 43 24.9991 43.4477 24.9991 44C24.9991 44.9303 25.3354 45.865 25.8097 46.9086C26.3151 48.0204 27.0258 49.3936 27.9279 50.5626C28.8427 51.7479 29.8633 52.6043 30.9547 52.883C31.9671 53.1415 33.0701 52.9558 34.1961 52.4759C35.3201 51.9967 36.3884 51.2569 37.2756 50.5294C37.8266 50.0775 38.5406 49.4098 39.1068 48.685C39.7027 47.9222 39.9991 47.2674 39.9991 46.8125C39.9991 46.2602 40.4468 45.8125 40.9991 45.8125C41.5513 45.8125 41.9991 46.2602 41.9991 46.8125C41.9991 47.969 41.338 49.0777 40.6829 49.9162C39.9982 50.7928 39.1675 51.5644 38.5439 52.0758C37.5785 52.8675 36.3448 53.7341 34.9803 54.3157C33.6177 54.8965 32.0457 55.2258 30.4598 54.8208C28.7349 54.3804 27.3703 53.1135 26.3446 51.7845C25.3064 50.4392 24.5213 48.9073 23.989 47.7361C23.4976 46.6551 22.9991 45.3869 22.9991 44C22.9991 43.4477 23.4468 43 23.9991 43Z" fill="#0F0C1C"/>
</svg>
